# xmcd CD database file
#
# Track frame offsets:
#	150
#	20822
#	34177
#	55712
#	72815
#	91847
#	105505
#	119222
#	142682
#	163230
#
# Disc length: 2424 seconds
#
# Revision: 0
# Processed by: cddbd v1.5PL3 Copyright (c) Steve Scherf et al.
# Submitted via: CDex 1.50Beta7
#
DISCID=8409760a
DTITLE=GOING UNDER GROUND - GOING UNDER GROUND
DYEAR=2000
DGENRE=Pop
TTITLE0=桜が咲いたら
TTITLE1=黄色い帽子
TTITLE2=Heavenly
TTITLE3=伊豆あたりに
TTITLE4=シーズン
TTITLE5=あの犬
TTITLE6=君と出会う
TTITLE7=荒川わたれ
TTITLE8=HAVING YOU
TTITLE9=回転木馬
EXTD=YEAR: 2000
EXTT0=
EXTT1=
EXTT2=
EXTT3=
EXTT4=
EXTT5=
EXTT6=
EXTT7=
EXTT8=
EXTT9=
PLAYORDER=
